<mxfile host="app.diagrams.net" modified="2022-07-25T10:17:33.239Z" agent="5.0 (Windows NT 10.0; Win64; x64) AppleWebKit/537.36 (KHTML, like Gecko) Chrome/103.0.0.0 Safari/537.36" etag="UV4fFWje1hvu6o45lI4I" version="20.2.0" type="github">
  <diagram id="yRXtWs0Ti5CR3rBdvTmx" name="Page-1">
    <mxGraphModel dx="1298" dy="735" grid="1" gridSize="10" guides="1" tooltips="1" connect="1" arrows="1" fold="1" page="1" pageScale="1" pageWidth="827" pageHeight="1169" math="0" shadow="0">
      <root>
        <mxCell id="0" />
        <mxCell id="1" parent="0" />
        <mxCell id="DTcMBHFo8Ep9_7jtX4kn-10" value="&lt;b&gt;MP-MMS&lt;/b&gt;" style="shape=umlFrame;whiteSpace=wrap;html=1;rounded=0;glass=0;fillColor=#e1d5e7;strokeColor=#9673a6;" parent="1" vertex="1">
          <mxGeometry x="8" y="7" width="810" height="630" as="geometry" />
        </mxCell>
        <mxCell id="DTcMBHFo8Ep9_7jtX4kn-1" value="User" style="swimlane;fontStyle=1;childLayout=stackLayout;horizontal=1;startSize=30;horizontalStack=0;resizeParent=1;resizeParentMax=0;resizeLast=0;collapsible=1;marginBottom=0;swimlaneLine=1;glass=0;fillColor=#e1d5e7;strokeColor=#9673a6;" parent="1" vertex="1">
          <mxGeometry x="50" y="90" width="140" height="210" as="geometry" />
        </mxCell>
        <mxCell id="DTcMBHFo8Ep9_7jtX4kn-2" value="Id: int" style="text;strokeColor=none;fillColor=none;align=left;verticalAlign=middle;spacingLeft=4;spacingRight=4;overflow=hidden;points=[[0,0.5],[1,0.5]];portConstraint=eastwest;rotatable=0;" parent="DTcMBHFo8Ep9_7jtX4kn-1" vertex="1">
          <mxGeometry y="30" width="140" height="30" as="geometry" />
        </mxCell>
        <mxCell id="DTcMBHFo8Ep9_7jtX4kn-8" value="FirstName: String" style="text;strokeColor=none;fillColor=none;align=left;verticalAlign=middle;spacingLeft=4;spacingRight=4;overflow=hidden;points=[[0,0.5],[1,0.5]];portConstraint=eastwest;rotatable=0;" parent="DTcMBHFo8Ep9_7jtX4kn-1" vertex="1">
          <mxGeometry y="60" width="140" height="30" as="geometry" />
        </mxCell>
        <mxCell id="DTcMBHFo8Ep9_7jtX4kn-57" value="LastName: String" style="text;strokeColor=none;fillColor=none;align=left;verticalAlign=middle;spacingLeft=4;spacingRight=4;overflow=hidden;points=[[0,0.5],[1,0.5]];portConstraint=eastwest;rotatable=0;" parent="DTcMBHFo8Ep9_7jtX4kn-1" vertex="1">
          <mxGeometry y="90" width="140" height="30" as="geometry" />
        </mxCell>
        <mxCell id="DTcMBHFo8Ep9_7jtX4kn-4" value="UserName: String" style="text;strokeColor=none;fillColor=none;align=left;verticalAlign=middle;spacingLeft=4;spacingRight=4;overflow=hidden;points=[[0,0.5],[1,0.5]];portConstraint=eastwest;rotatable=0;rounded=0;" parent="DTcMBHFo8Ep9_7jtX4kn-1" vertex="1">
          <mxGeometry y="120" width="140" height="30" as="geometry" />
        </mxCell>
        <mxCell id="DTcMBHFo8Ep9_7jtX4kn-3" value="Email: string    " style="text;strokeColor=none;fillColor=none;align=left;verticalAlign=middle;spacingLeft=4;spacingRight=4;overflow=hidden;points=[[0,0.5],[1,0.5]];portConstraint=eastwest;rotatable=0;" parent="DTcMBHFo8Ep9_7jtX4kn-1" vertex="1">
          <mxGeometry y="150" width="140" height="30" as="geometry" />
        </mxCell>
        <mxCell id="DTcMBHFo8Ep9_7jtX4kn-58" value="Password: String" style="text;strokeColor=none;fillColor=none;align=left;verticalAlign=middle;spacingLeft=4;spacingRight=4;overflow=hidden;points=[[0,0.5],[1,0.5]];portConstraint=eastwest;rotatable=0;" parent="DTcMBHFo8Ep9_7jtX4kn-1" vertex="1">
          <mxGeometry y="180" width="140" height="30" as="geometry" />
        </mxCell>
        <mxCell id="DTcMBHFo8Ep9_7jtX4kn-11" value="Equipment" style="swimlane;fontStyle=1;childLayout=stackLayout;horizontal=1;startSize=30;horizontalStack=0;resizeParent=1;resizeParentMax=0;resizeLast=0;collapsible=1;marginBottom=0;rounded=0;glass=0;fillColor=#e1d5e7;strokeColor=#9673a6;" parent="1" vertex="1">
          <mxGeometry x="230" y="202" width="150" height="330" as="geometry" />
        </mxCell>
        <mxCell id="DTcMBHFo8Ep9_7jtX4kn-12" value="Id: int" style="text;strokeColor=none;fillColor=none;align=left;verticalAlign=middle;spacingLeft=4;spacingRight=4;overflow=hidden;points=[[0,0.5],[1,0.5]];portConstraint=eastwest;rotatable=0;rounded=0;glass=0;" parent="DTcMBHFo8Ep9_7jtX4kn-11" vertex="1">
          <mxGeometry y="30" width="150" height="30" as="geometry" />
        </mxCell>
        <mxCell id="DTcMBHFo8Ep9_7jtX4kn-13" value="Name: String" style="text;strokeColor=none;fillColor=none;align=left;verticalAlign=middle;spacingLeft=4;spacingRight=4;overflow=hidden;points=[[0,0.5],[1,0.5]];portConstraint=eastwest;rotatable=0;rounded=0;glass=0;" parent="DTcMBHFo8Ep9_7jtX4kn-11" vertex="1">
          <mxGeometry y="60" width="150" height="30" as="geometry" />
        </mxCell>
        <mxCell id="DTcMBHFo8Ep9_7jtX4kn-15" value="SerialNumber: int" style="text;strokeColor=none;fillColor=none;align=left;verticalAlign=middle;spacingLeft=4;spacingRight=4;overflow=hidden;points=[[0,0.5],[1,0.5]];portConstraint=eastwest;rotatable=0;rounded=0;glass=0;" parent="DTcMBHFo8Ep9_7jtX4kn-11" vertex="1">
          <mxGeometry y="90" width="150" height="30" as="geometry" />
        </mxCell>
        <mxCell id="FOSHesyxa6RLt1NHiVqE-6" value="ModelNumber: int" style="text;strokeColor=none;fillColor=none;align=left;verticalAlign=middle;spacingLeft=4;spacingRight=4;overflow=hidden;points=[[0,0.5],[1,0.5]];portConstraint=eastwest;rotatable=0;rounded=0;glass=0;" parent="DTcMBHFo8Ep9_7jtX4kn-11" vertex="1">
          <mxGeometry y="120" width="150" height="30" as="geometry" />
        </mxCell>
        <mxCell id="DTcMBHFo8Ep9_7jtX4kn-16" value="Manufacturer: String" style="text;strokeColor=none;fillColor=none;align=left;verticalAlign=middle;spacingLeft=4;spacingRight=4;overflow=hidden;points=[[0,0.5],[1,0.5]];portConstraint=eastwest;rotatable=0;rounded=0;glass=0;" parent="DTcMBHFo8Ep9_7jtX4kn-11" vertex="1">
          <mxGeometry y="150" width="150" height="30" as="geometry" />
        </mxCell>
        <mxCell id="DTcMBHFo8Ep9_7jtX4kn-17" value="PictureLocation: String " style="text;strokeColor=none;fillColor=none;align=left;verticalAlign=middle;spacingLeft=4;spacingRight=4;overflow=hidden;points=[[0,0.5],[1,0.5]];portConstraint=eastwest;rotatable=0;rounded=0;glass=0;" parent="DTcMBHFo8Ep9_7jtX4kn-11" vertex="1">
          <mxGeometry y="180" width="150" height="30" as="geometry" />
        </mxCell>
        <mxCell id="DTcMBHFo8Ep9_7jtX4kn-18" value="UnitCost: double" style="text;strokeColor=none;fillColor=none;align=left;verticalAlign=middle;spacingLeft=4;spacingRight=4;overflow=hidden;points=[[0,0.5],[1,0.5]];portConstraint=eastwest;rotatable=0;rounded=0;glass=0;" parent="DTcMBHFo8Ep9_7jtX4kn-11" vertex="1">
          <mxGeometry y="210" width="150" height="30" as="geometry" />
        </mxCell>
        <mxCell id="DTcMBHFo8Ep9_7jtX4kn-19" value="Quantity: int" style="text;strokeColor=none;fillColor=none;align=left;verticalAlign=middle;spacingLeft=4;spacingRight=4;overflow=hidden;points=[[0,0.5],[1,0.5]];portConstraint=eastwest;rotatable=0;rounded=0;glass=0;" parent="DTcMBHFo8Ep9_7jtX4kn-11" vertex="1">
          <mxGeometry y="240" width="150" height="30" as="geometry" />
        </mxCell>
        <mxCell id="DTcMBHFo8Ep9_7jtX4kn-48" value="Workshop: Workshop_id" style="text;strokeColor=#b85450;fillColor=#f8cecc;align=left;verticalAlign=middle;spacingLeft=4;spacingRight=4;overflow=hidden;points=[[0,0.5],[1,0.5]];portConstraint=eastwest;rotatable=0;rounded=0;glass=0;" parent="DTcMBHFo8Ep9_7jtX4kn-11" vertex="1">
          <mxGeometry y="270" width="150" height="30" as="geometry" />
        </mxCell>
        <mxCell id="ilMQ8ZnPBvkyLp46hYwI-5" value="Category: Category_id" style="text;strokeColor=#b85450;fillColor=#f8cecc;align=left;verticalAlign=middle;spacingLeft=4;spacingRight=4;overflow=hidden;points=[[0,0.5],[1,0.5]];portConstraint=eastwest;rotatable=0;rounded=0;glass=0;" vertex="1" parent="DTcMBHFo8Ep9_7jtX4kn-11">
          <mxGeometry y="300" width="150" height="30" as="geometry" />
        </mxCell>
        <mxCell id="DTcMBHFo8Ep9_7jtX4kn-20" value="Workshop (Location)" style="swimlane;fontStyle=1;childLayout=stackLayout;horizontal=1;startSize=30;horizontalStack=0;resizeParent=1;resizeParentMax=0;resizeLast=0;collapsible=1;marginBottom=0;rounded=0;glass=0;fillColor=#e1d5e7;strokeColor=#9673a6;" parent="1" vertex="1">
          <mxGeometry x="50" y="340" width="140" height="120" as="geometry" />
        </mxCell>
        <mxCell id="DTcMBHFo8Ep9_7jtX4kn-21" value="Id: int" style="text;strokeColor=none;fillColor=none;align=left;verticalAlign=middle;spacingLeft=4;spacingRight=4;overflow=hidden;points=[[0,0.5],[1,0.5]];portConstraint=eastwest;rotatable=0;rounded=0;glass=0;" parent="DTcMBHFo8Ep9_7jtX4kn-20" vertex="1">
          <mxGeometry y="30" width="140" height="30" as="geometry" />
        </mxCell>
        <mxCell id="DTcMBHFo8Ep9_7jtX4kn-23" value="Address: String" style="text;strokeColor=none;fillColor=none;align=left;verticalAlign=middle;spacingLeft=4;spacingRight=4;overflow=hidden;points=[[0,0.5],[1,0.5]];portConstraint=eastwest;rotatable=0;rounded=0;glass=0;" parent="DTcMBHFo8Ep9_7jtX4kn-20" vertex="1">
          <mxGeometry y="60" width="140" height="30" as="geometry" />
        </mxCell>
        <mxCell id="DTcMBHFo8Ep9_7jtX4kn-47" value="Name: String" style="text;strokeColor=none;fillColor=none;align=left;verticalAlign=middle;spacingLeft=4;spacingRight=4;overflow=hidden;points=[[0,0.5],[1,0.5]];portConstraint=eastwest;rotatable=0;rounded=0;glass=0;" parent="DTcMBHFo8Ep9_7jtX4kn-20" vertex="1">
          <mxGeometry y="90" width="140" height="30" as="geometry" />
        </mxCell>
        <mxCell id="DTcMBHFo8Ep9_7jtX4kn-28" value="MaintenanceWO" style="swimlane;fontStyle=1;childLayout=stackLayout;horizontal=1;startSize=30;horizontalStack=0;resizeParent=1;resizeParentMax=0;resizeLast=0;collapsible=1;marginBottom=0;rounded=0;glass=0;fillColor=#e1d5e7;strokeColor=#9673a6;" parent="1" vertex="1">
          <mxGeometry x="430" y="202" width="180" height="240" as="geometry">
            <mxRectangle x="480" y="190" width="70" height="30" as="alternateBounds" />
          </mxGeometry>
        </mxCell>
        <mxCell id="DTcMBHFo8Ep9_7jtX4kn-29" value="Id: int" style="text;strokeColor=none;fillColor=none;align=left;verticalAlign=middle;spacingLeft=4;spacingRight=4;overflow=hidden;points=[[0,0.5],[1,0.5]];portConstraint=eastwest;rotatable=0;rounded=0;glass=0;" parent="DTcMBHFo8Ep9_7jtX4kn-28" vertex="1">
          <mxGeometry y="30" width="180" height="30" as="geometry" />
        </mxCell>
        <mxCell id="DTcMBHFo8Ep9_7jtX4kn-30" value="Description: String" style="text;strokeColor=none;fillColor=none;align=left;verticalAlign=middle;spacingLeft=4;spacingRight=4;overflow=hidden;points=[[0,0.5],[1,0.5]];portConstraint=eastwest;rotatable=0;rounded=0;glass=0;" parent="DTcMBHFo8Ep9_7jtX4kn-28" vertex="1">
          <mxGeometry y="60" width="180" height="30" as="geometry" />
        </mxCell>
        <mxCell id="DTcMBHFo8Ep9_7jtX4kn-32" value="AssignedTo: Role_Id" style="text;strokeColor=#b85450;fillColor=#f8cecc;align=left;verticalAlign=middle;spacingLeft=4;spacingRight=4;overflow=hidden;points=[[0,0.5],[1,0.5]];portConstraint=eastwest;rotatable=0;rounded=0;glass=0;" parent="DTcMBHFo8Ep9_7jtX4kn-28" vertex="1">
          <mxGeometry y="90" width="180" height="30" as="geometry" />
        </mxCell>
        <mxCell id="FOSHesyxa6RLt1NHiVqE-1" value="DueDate:DateTime" style="text;align=left;verticalAlign=middle;spacingLeft=4;spacingRight=4;overflow=hidden;points=[[0,0.5],[1,0.5]];portConstraint=eastwest;rotatable=0;rounded=0;glass=0;" parent="DTcMBHFo8Ep9_7jtX4kn-28" vertex="1">
          <mxGeometry y="120" width="180" height="30" as="geometry" />
        </mxCell>
        <mxCell id="DTcMBHFo8Ep9_7jtX4kn-35" value="WOImageLocation: String" style="text;strokeColor=none;fillColor=none;align=left;verticalAlign=middle;spacingLeft=4;spacingRight=4;overflow=hidden;points=[[0,0.5],[1,0.5]];portConstraint=eastwest;rotatable=0;rounded=0;glass=0;" parent="DTcMBHFo8Ep9_7jtX4kn-28" vertex="1">
          <mxGeometry y="150" width="180" height="30" as="geometry" />
        </mxCell>
        <mxCell id="DTcMBHFo8Ep9_7jtX4kn-34" value="Equipment: Equipment_id" style="text;strokeColor=#b85450;fillColor=#f8cecc;align=left;verticalAlign=middle;spacingLeft=4;spacingRight=4;overflow=hidden;points=[[0,0.5],[1,0.5]];portConstraint=eastwest;rotatable=0;rounded=0;glass=0;" parent="DTcMBHFo8Ep9_7jtX4kn-28" vertex="1">
          <mxGeometry y="180" width="180" height="30" as="geometry" />
        </mxCell>
        <mxCell id="FOSHesyxa6RLt1NHiVqE-2" value="IsCompleted: bool" style="text;align=left;verticalAlign=middle;spacingLeft=4;spacingRight=4;overflow=hidden;points=[[0,0.5],[1,0.5]];portConstraint=eastwest;rotatable=0;rounded=0;glass=0;" parent="DTcMBHFo8Ep9_7jtX4kn-28" vertex="1">
          <mxGeometry y="210" width="180" height="30" as="geometry" />
        </mxCell>
        <mxCell id="DTcMBHFo8Ep9_7jtX4kn-36" value="Employee" style="swimlane;fontStyle=1;childLayout=stackLayout;horizontal=1;startSize=30;horizontalStack=0;resizeParent=1;resizeParentMax=0;resizeLast=0;collapsible=1;marginBottom=0;swimlaneLine=1;glass=0;fillColor=#e1d5e7;strokeColor=#9673a6;" parent="1" vertex="1">
          <mxGeometry x="640" y="440" width="140" height="120" as="geometry" />
        </mxCell>
        <mxCell id="DTcMBHFo8Ep9_7jtX4kn-37" value="Id: int" style="text;strokeColor=none;fillColor=none;align=left;verticalAlign=middle;spacingLeft=4;spacingRight=4;overflow=hidden;points=[[0,0.5],[1,0.5]];portConstraint=eastwest;rotatable=0;" parent="DTcMBHFo8Ep9_7jtX4kn-36" vertex="1">
          <mxGeometry y="30" width="140" height="30" as="geometry" />
        </mxCell>
        <mxCell id="DTcMBHFo8Ep9_7jtX4kn-38" value="Email: string    " style="text;strokeColor=none;fillColor=none;align=left;verticalAlign=middle;spacingLeft=4;spacingRight=4;overflow=hidden;points=[[0,0.5],[1,0.5]];portConstraint=eastwest;rotatable=0;" parent="DTcMBHFo8Ep9_7jtX4kn-36" vertex="1">
          <mxGeometry y="60" width="140" height="30" as="geometry" />
        </mxCell>
        <mxCell id="DTcMBHFo8Ep9_7jtX4kn-39" value="Name: String" style="text;strokeColor=none;fillColor=none;align=left;verticalAlign=middle;spacingLeft=4;spacingRight=4;overflow=hidden;points=[[0,0.5],[1,0.5]];portConstraint=eastwest;rotatable=0;rounded=0;" parent="DTcMBHFo8Ep9_7jtX4kn-36" vertex="1">
          <mxGeometry y="90" width="140" height="30" as="geometry" />
        </mxCell>
        <mxCell id="DTcMBHFo8Ep9_7jtX4kn-46" value="" style="fontSize=12;html=1;endArrow=ERoneToMany;rounded=0;entryX=1.008;entryY=0.253;entryDx=0;entryDy=0;entryPerimeter=0;exitX=0.5;exitY=0;exitDx=0;exitDy=0;edgeStyle=orthogonalEdgeStyle;" parent="1" source="DTcMBHFo8Ep9_7jtX4kn-36" target="DTcMBHFo8Ep9_7jtX4kn-32" edge="1">
          <mxGeometry width="100" height="100" relative="1" as="geometry">
            <mxPoint x="720" y="450" as="sourcePoint" />
            <mxPoint x="570" y="420" as="targetPoint" />
            <Array as="points">
              <mxPoint x="710" y="300" />
            </Array>
          </mxGeometry>
        </mxCell>
        <mxCell id="DTcMBHFo8Ep9_7jtX4kn-51" value="" style="endArrow=none;html=1;rounded=0;" parent="1" edge="1">
          <mxGeometry relative="1" as="geometry">
            <mxPoint x="84" y="340" as="sourcePoint" />
            <mxPoint x="84" y="300" as="targetPoint" />
          </mxGeometry>
        </mxCell>
        <mxCell id="DTcMBHFo8Ep9_7jtX4kn-53" value="" style="fontSize=12;html=1;endArrow=ERoneToMany;rounded=0;entryX=0;entryY=0.5;entryDx=0;entryDy=0;edgeStyle=elbowEdgeStyle;exitX=1.004;exitY=0.063;exitDx=0;exitDy=0;exitPerimeter=0;" parent="1" source="DTcMBHFo8Ep9_7jtX4kn-11" target="DTcMBHFo8Ep9_7jtX4kn-34" edge="1">
          <mxGeometry width="100" height="100" relative="1" as="geometry">
            <mxPoint x="360" y="470" as="sourcePoint" />
            <mxPoint x="460" y="370" as="targetPoint" />
          </mxGeometry>
        </mxCell>
        <mxCell id="DTcMBHFo8Ep9_7jtX4kn-54" value="" style="edgeStyle=orthogonalEdgeStyle;fontSize=12;html=1;endArrow=ERzeroToMany;startArrow=ERmandOne;rounded=0;exitX=0.5;exitY=0;exitDx=0;exitDy=0;" parent="1" source="DTcMBHFo8Ep9_7jtX4kn-20" edge="1">
          <mxGeometry width="100" height="100" relative="1" as="geometry">
            <mxPoint x="220" y="290" as="sourcePoint" />
            <mxPoint x="230" y="480" as="targetPoint" />
            <Array as="points">
              <mxPoint x="120" y="330" />
              <mxPoint x="210" y="330" />
              <mxPoint x="210" y="480" />
            </Array>
          </mxGeometry>
        </mxCell>
        <mxCell id="ilMQ8ZnPBvkyLp46hYwI-1" value="Category" style="swimlane;fontStyle=1;childLayout=stackLayout;horizontal=1;startSize=30;horizontalStack=0;resizeParent=1;resizeParentMax=0;resizeLast=0;collapsible=1;marginBottom=0;rounded=0;glass=0;fillColor=#e1d5e7;strokeColor=#9673a6;" vertex="1" parent="1">
          <mxGeometry x="430" y="532" width="140" height="90" as="geometry" />
        </mxCell>
        <mxCell id="ilMQ8ZnPBvkyLp46hYwI-2" value="Id: int" style="text;strokeColor=none;fillColor=none;align=left;verticalAlign=middle;spacingLeft=4;spacingRight=4;overflow=hidden;points=[[0,0.5],[1,0.5]];portConstraint=eastwest;rotatable=0;rounded=0;glass=0;" vertex="1" parent="ilMQ8ZnPBvkyLp46hYwI-1">
          <mxGeometry y="30" width="140" height="30" as="geometry" />
        </mxCell>
        <mxCell id="ilMQ8ZnPBvkyLp46hYwI-4" value="Name: String" style="text;strokeColor=none;fillColor=none;align=left;verticalAlign=middle;spacingLeft=4;spacingRight=4;overflow=hidden;points=[[0,0.5],[1,0.5]];portConstraint=eastwest;rotatable=0;rounded=0;glass=0;" vertex="1" parent="ilMQ8ZnPBvkyLp46hYwI-1">
          <mxGeometry y="60" width="140" height="30" as="geometry" />
        </mxCell>
        <mxCell id="ilMQ8ZnPBvkyLp46hYwI-7" value="" style="edgeStyle=orthogonalEdgeStyle;fontSize=12;html=1;endArrow=ERzeroToMany;startArrow=ERzeroToOne;rounded=0;exitX=0.5;exitY=0;exitDx=0;exitDy=0;entryX=1;entryY=0.5;entryDx=0;entryDy=0;" edge="1" parent="1" source="ilMQ8ZnPBvkyLp46hYwI-1" target="ilMQ8ZnPBvkyLp46hYwI-5">
          <mxGeometry width="100" height="100" relative="1" as="geometry">
            <mxPoint x="230" y="660" as="sourcePoint" />
            <mxPoint x="330" y="560" as="targetPoint" />
          </mxGeometry>
        </mxCell>
      </root>
    </mxGraphModel>
  </diagram>
</mxfile>
